<svg width="208" height="207" viewBox="0 0 208 207" fill="none" xmlns="http://www.w3.org/2000/svg">
<g clip-path="url(#clip0_1_18)">
<path d="M46.8756 1.26255e-05C20.989 1.26255e-05 -6.10352e-05 20.8898 -6.10352e-05 46.6489V159.642C-6.10352e-05 185.414 20.989 206.305 46.8756 206.305H160.399C186.286 206.305 207.272 185.414 207.272 159.642V46.6489C207.272 20.8898 186.286 1.26255e-05 160.399 1.26255e-05H46.8756Z" fill="#0053E2"/>
<path d="M132.427 96.1836C135.714 95.5094 164.796 82.2468 167.391 80.756C173.318 77.3508 175.349 69.8076 171.926 63.9083C168.505 58.0104 160.928 55.9894 155.001 59.3947C152.405 60.8868 126.325 79.3239 124.095 81.8205C121.54 84.6809 121.098 88.7736 122.988 92.0323C124.878 95.2896 128.66 96.9549 132.427 96.1836Z" fill="#FFC220"/>
<path d="M167.392 125.549C164.795 124.057 135.715 110.794 132.427 110.122C128.659 109.349 124.878 111.014 122.988 114.273C121.098 117.532 121.54 121.624 124.095 124.485C126.325 126.981 152.406 145.418 155.001 146.911C160.928 150.316 168.505 148.295 171.926 142.397C175.349 136.498 173.318 128.954 167.392 125.549Z" fill="#FFC220"/>
<path d="M103.636 125.394C99.8565 125.394 96.5156 127.821 95.3042 131.454C94.2468 134.623 91.2459 166.323 91.2459 169.306C91.2459 176.118 96.794 181.64 103.636 181.64C110.479 181.64 116.027 176.118 116.027 169.306C116.027 166.323 113.026 134.623 111.969 131.454C110.757 127.821 107.416 125.394 103.636 125.394Z" fill="#FFC220"/>
<path d="M74.846 110.121C71.5586 110.795 42.477 124.058 39.8817 125.549C33.9548 128.954 31.9243 136.497 35.3455 142.396C38.768 148.294 46.3453 150.315 52.2722 146.91C54.8675 145.418 80.9482 126.981 83.1781 124.484C85.7333 121.624 86.1751 117.531 84.2837 114.273C82.3938 111.015 78.6125 109.35 74.846 110.121Z" fill="#FFC220"/>
<path d="M52.2719 59.3948C46.3464 55.9895 38.7678 58.0106 35.3453 63.9085C31.9254 69.8077 33.9545 77.3496 39.8814 80.7548C42.4768 82.2483 71.5597 95.5096 74.8458 96.1837C78.6123 96.9551 82.3949 95.2898 84.2849 92.0311C86.1748 88.7737 85.7331 84.681 83.1779 81.8193C80.948 79.3227 54.8673 60.8869 52.2719 59.3948Z" fill="#FFC220"/>
<path d="M103.636 24.6653C96.7927 24.6653 91.2459 30.1875 91.2459 36.998C91.2459 39.9809 94.2468 71.6806 95.3042 74.8513C96.5169 78.4844 99.8565 80.9118 103.636 80.9118C107.416 80.9118 110.757 78.4844 111.969 74.8513C113.026 71.6806 116.027 39.9809 116.027 36.998C116.027 30.1875 110.479 24.6653 103.636 24.6653Z" fill="#FFC220"/>
</g>
<defs>
<clipPath id="clip0_1_18">
<rect width="207.272" height="206.305" fill="white"/>
</clipPath>
</defs>
</svg>
